<svg width="60" height="60" viewBox="0 0 60 60" fill="none" xmlns="http://www.w3.org/2000/svg">
<path d="M27.6572 43.3144C25.7966 43.3144 24.2221 42.6698 22.9337 41.3807C21.6452 40.0916 21.0007 38.5171 21 36.6572C20.9993 34.7973 21.6439 33.2228 22.9337 31.9337C24.2234 30.6446 25.798 30 27.6572 30C29.5164 30 31.0913 30.6446 32.3817 31.9337C33.6722 33.2228 34.3164 34.7973 34.3144 36.6572C34.3144 37.4083 34.1949 38.1166 33.9559 38.7824C33.7169 39.4481 33.3926 40.037 32.9829 40.5491L38.7183 46.2845C38.9061 46.4723 39 46.7112 39 47.0014C39 47.2916 38.9061 47.5306 38.7183 47.7183C38.5306 47.9061 38.2916 48 38.0014 48C37.7112 48 37.4723 47.9061 37.2845 47.7183L31.5491 41.9829C31.037 42.3926 30.4481 42.7169 29.7824 42.9559C29.1166 43.1949 28.4083 43.3144 27.6572 43.3144ZM27.6572 41.266C28.9374 41.266 30.0258 40.8181 30.9223 39.9223C31.8188 39.0265 32.2667 37.9381 32.266 36.6572C32.2653 35.3763 31.8174 34.2883 30.9223 33.3931C30.0271 32.498 28.9388 32.0497 27.6572 32.0484C26.3756 32.047 25.2876 32.4952 24.3931 33.3931C23.4987 34.291 23.0504 35.379 23.0484 36.6572C23.0463 37.9354 23.4946 39.0237 24.3931 39.9223C25.2917 40.8208 26.3797 41.2687 27.6572 41.266Z" fill="white"/>
<path d="M32.6512 5.625C31.948 4.92199 30.9944 4.52705 30 4.52705C29.0056 4.52705 28.052 4.92199 27.3487 5.625L2.42249 30.5475C2.24816 30.7218 2.10987 30.9288 2.01553 31.1566C1.92118 31.3843 1.87262 31.6285 1.87262 31.875C1.87262 32.1215 1.92118 32.3657 2.01553 32.5934C2.10987 32.8212 2.24816 33.0282 2.42249 33.2025C2.77456 33.5546 3.25208 33.7524 3.74999 33.7524C3.99653 33.7524 4.24065 33.7038 4.46843 33.6095C4.6962 33.5151 4.90316 33.3768 5.07749 33.2025L7.49999 30.7763V50.625C7.49999 52.1168 8.09262 53.5476 9.14751 54.6025C10.2024 55.6574 11.6331 56.25 13.125 56.25H46.875C48.3668 56.25 49.7976 55.6574 50.8525 54.6025C51.9074 53.5476 52.5 52.1168 52.5 50.625V30.7763L54.9225 33.2025C55.2746 33.5546 55.7521 33.7524 56.25 33.7524C56.7479 33.7524 57.2254 33.5546 57.5775 33.2025C57.9296 32.8504 58.1274 32.3729 58.1274 31.875C58.1274 31.3771 57.9296 30.8996 57.5775 30.5475L48.75 21.7238V9.375C48.75 8.87772 48.5524 8.40081 48.2008 8.04918C47.8492 7.69755 47.3723 7.5 46.875 7.5H43.125C42.6277 7.5 42.1508 7.69755 41.7992 8.04918C41.4475 8.40081 41.25 8.87772 41.25 9.375V14.2238L32.6512 5.625ZM48.75 27.0263V50.625C48.75 51.1223 48.5524 51.5992 48.2008 51.9508C47.8492 52.3025 47.3723 52.5 46.875 52.5H13.125C12.6277 52.5 12.1508 52.3025 11.7992 51.9508C11.4475 51.5992 11.25 51.1223 11.25 50.625V27.0263L30 8.27625L48.75 27.0263Z" fill="white"/>
</svg>
