<?xml version="1.0" encoding="utf-8"?>
<!-- Generator: Adobe Illustrator 27.0.0, SVG Export Plug-In . SVG Version: 6.00 Build 0)  -->
<svg version="1.1" id="Layer_1" xmlns="http://www.w3.org/2000/svg" xmlns:xlink="http://www.w3.org/1999/xlink" x="0px" y="0px"
	 viewBox="0 0 54 40" style="enable-background:new 0 0 54 40;" xml:space="preserve">
<style type="text/css">
	.st0{stroke:#FCFAFA;}
</style>
<path class="st0" d="M9.2,16c0.8,1,1.6,2.7,2.2,5.1c0.5,2.4,0.6,4.6,0.2,6.3c-0.4,1.6-1.2,2.7-2.4,3c-0.9,0.2-2.3,0.2-3.6-0.4
	c-1.3-0.6-2.5-1.8-3-4.1c-0.5-2.3,0.2-5,1.2-7.2c0.5-1.1,1.1-2,1.7-2.7c0.3-0.3,0.6-0.6,0.8-0.8c0.3-0.2,0.4-0.3,0.6-0.3
	C7.6,14.6,8.4,14.9,9.2,16z"/>
<path class="st0" d="M44.3,14.9c-0.8,1-1.6,2.7-2.2,5.1c-0.5,2.4-0.6,4.6-0.2,6.3c0.4,1.6,1.2,2.7,2.4,3c0.9,0.2,2.3,0.2,3.6-0.4
	c1.3-0.6,2.5-1.8,3-4.1c0.5-2.3-0.2-5-1.2-7.2c-0.5-1.1-1.1-2-1.7-2.7c-0.3-0.3-0.6-0.6-0.8-0.8c-0.3-0.2-0.4-0.3-0.6-0.3
	C46,13.6,45.2,13.9,44.3,14.9z"/>
<path class="st0" d="M23.5,3c0.9,1.2,1.6,3.1,1.9,5.7c0.2,2.7,0,5-0.8,6.7c-0.7,1.7-1.9,2.8-3.5,3c-1.1,0.1-2.9-0.1-4.5-0.9
	c-1.6-0.8-2.9-2.2-3.1-4.7c-0.2-2.5,1-5.3,2.7-7.6c0.8-1.1,1.7-2.1,2.5-2.7c0.9-0.7,1.6-1,2-1.1C21.7,1.4,22.7,1.8,23.5,3z"/>
<path class="st0" d="M30.2,3c-0.9,1.2-1.6,3.1-1.9,5.7c-0.2,2.7,0,5,0.8,6.7c0.7,1.7,1.9,2.8,3.5,3c1.1,0.1,2.9-0.1,4.5-0.9
	c1.6-0.8,2.9-2.2,3.1-4.7c0.2-2.5-1-5.3-2.7-7.6c-0.8-1.1-1.7-2.1-2.5-2.7c-0.9-0.7-1.6-1-2-1.1C32.1,1.4,31.1,1.8,30.2,3z"/>
<path class="st0" d="M5,39.5c0-8,9.4-7.5,12-13.5c1.1-2.6,3.4-6.5,11-6.5"/>
<path class="st0" d="M50,39.5c0-8-9.4-7.5-12-13.5c-1.1-2.6-3.4-6.5-11-6.5"/>
</svg>
