<svg width="54" height="40" viewBox="0 0 54 40" fill="none" xmlns="http://www.w3.org/2000/svg">
<path d="M12.499 12.9357C13.1749 13.7786 13.8201 15.1715 14.2964 17.1692C14.7102 19.1928 14.7692 21.0077 14.4621 22.3764C14.1568 23.7368 13.5187 24.5639 12.5973 24.843C11.9112 24.984 10.7555 24.9852 9.6867 24.4915C8.636 24.0061 7.63267 23.0277 7.24137 21.1178C6.84802 19.1979 7.37573 16.9609 8.21981 15.1364C8.63908 14.2301 9.12601 13.4488 9.5905 12.8823C9.8229 12.5989 10.0427 12.3777 10.2381 12.2224C10.4395 12.0624 10.5851 11.9963 10.6699 11.9783C11.1814 11.8699 11.8206 12.0896 12.499 12.9357Z" fill="#E51A3F" stroke="#E51A3F"/>
<path d="M41.8229 13.0715C41.147 13.9144 40.5018 15.3073 40.0255 17.305C39.6117 19.3286 39.5527 21.1435 39.8598 22.5122C40.1651 23.8726 40.8032 24.6997 41.7246 24.9788C42.4107 25.1198 43.5664 25.121 44.6352 24.6273C45.6859 24.1419 46.6892 23.1635 47.0805 21.2536C47.4739 19.3337 46.9462 17.0967 46.1021 15.2722C45.6828 14.3659 45.1959 13.5846 44.7314 13.0181C44.499 12.7347 44.2792 12.5135 44.0838 12.3582C43.8824 12.1982 43.7368 12.1321 43.652 12.1141C43.1405 12.0057 42.5013 12.2255 41.8229 13.0715Z" fill="#E51A3F" stroke="#E51A3F"/>
<path d="M23.3897 2.10027C24.0923 3.07987 24.6664 4.64076 24.9346 6.82776C25.1211 9.03581 24.9024 10.9801 24.3014 12.408C23.7077 13.8183 22.7636 14.6876 21.4742 14.8936C20.5646 14.9704 19.0863 14.8346 17.8055 14.1655C16.5449 13.507 15.4687 12.3334 15.293 10.2657C15.1157 8.17869 16.1256 5.84739 17.4738 3.98222C18.1421 3.05761 18.8768 2.27154 19.5529 1.71148C20.2524 1.13206 20.8144 0.857196 21.1432 0.828293C21.9004 0.761735 22.692 1.12755 23.3897 2.10027Z" fill="#E51A3F" stroke="#E51A3F"/>
<path d="M30.74 2.10027C30.0374 3.07987 29.4633 4.64076 29.1951 6.82776C29.0085 9.03581 29.2272 10.9801 29.8283 12.408C30.4219 13.8183 31.3661 14.6876 32.6554 14.8936C33.5651 14.9704 35.0433 14.8346 36.3241 14.1655C37.5848 13.507 38.6609 12.3334 38.8366 10.2657C39.0139 8.17869 38.0041 5.84739 36.6559 3.98222C35.9875 3.05761 35.2529 2.27154 34.5767 1.71148C33.8772 1.13206 33.3152 0.857196 32.9864 0.828293C32.2293 0.761735 31.4376 1.12755 30.74 2.10027Z" fill="#E51A3F" stroke="#E51A3F"/>
<path d="M45.4999 34C45.4999 43.6565 34.4121 37.4817 30.9356 35.1403C28.5 33.5 25.5 33.5 23.5 35.1403" stroke="#E51A3F"/>
<path d="M45.5 34C45.5 27.2 38.2694 27.6466 36.087 22.525C35.1556 20.3393 33.2588 17 27 17" stroke="#E51A3F"/>
<path d="M9.00006 34C9.00006 43.6565 20.0879 37.4817 23.5644 35.1403C26 33.5 29 33.5 31 35.1403" stroke="#E51A3F"/>
<path d="M9 34C9 27.2 16.2306 27.6466 18.413 22.525C19.3444 20.3393 21.2412 17 27.5 17" stroke="#E51A3F"/>
</svg>
