<svg width="54" height="40" viewBox="0 0 54 40" fill="none" xmlns="http://www.w3.org/2000/svg">
<path d="M9.21362 15.9639C10.0485 16.9875 10.8382 18.6692 11.4196 21.0673C11.9249 23.4962 11.999 25.6826 11.6211 27.3384C11.2453 28.9849 10.4505 30.02 9.27085 30.369C8.41647 30.5427 6.98175 30.545 5.65357 29.9417C4.34423 29.347 3.10399 28.1506 2.62202 25.8377C2.1378 23.5139 2.78779 20.8157 3.82006 18.6219C4.33329 17.5312 4.93035 16.5885 5.50237 15.9026C5.78852 15.5595 6.06152 15.2888 6.3072 15.0969C6.55877 14.9003 6.75225 14.8095 6.88035 14.7828C7.56254 14.6406 8.37725 14.9383 9.21362 15.9639Z" fill="#FCFAFA" stroke="#FCFAFA"/>
<path d="M44.3362 14.9463C43.5013 15.97 42.7116 17.6517 42.1302 20.0497C41.6249 22.4787 41.5508 24.6651 41.9287 26.3208C42.3045 27.9673 43.0993 29.0024 44.279 29.3514C45.1333 29.5251 46.5681 29.5274 47.8962 28.9241C49.2056 28.3294 50.4458 27.133 50.9278 24.8201C51.412 22.4963 50.762 19.7981 49.7297 17.6043C49.2165 16.5136 48.6195 15.571 48.0474 14.885C47.7613 14.5419 47.4883 14.2713 47.2426 14.0793C46.991 13.8828 46.7976 13.7919 46.6695 13.7652C45.9873 13.623 45.1726 13.9208 44.3362 14.9463Z" fill="#FCFAFA" stroke="#FCFAFA"/>
<path d="M23.5183 3.0043C24.3863 4.19414 25.0884 6.07909 25.4157 8.70534C25.6437 11.3565 25.3779 13.6999 24.6381 15.4277C23.9062 17.1374 22.7305 18.2124 21.1089 18.4655C19.9851 18.5596 18.1606 18.3958 16.5771 17.5825C15.0137 16.7796 13.6824 15.3475 13.4656 12.8395C13.2471 10.3111 14.4903 7.49894 16.138 5.25776C16.9557 4.14543 17.8558 3.19808 18.6867 2.5214C19.5404 1.8261 20.2474 1.47723 20.6851 1.43941C21.659 1.35523 22.6558 1.82196 23.5183 3.0043Z" fill="#FCFAFA" stroke="#FCFAFA"/>
<path d="M30.2439 3.0043C29.3759 4.19414 28.6738 6.07909 28.3465 8.70534C28.1185 11.3565 28.3843 13.6999 29.1241 15.4277C29.856 17.1374 31.0317 18.2124 32.6533 18.4655C33.7771 18.5596 35.6016 18.3958 37.1851 17.5825C38.7485 16.7796 40.0798 15.3475 40.2966 12.8395C40.5151 10.3111 39.2719 7.49894 37.6243 5.25776C36.8065 4.14543 35.9064 3.19808 35.0755 2.5214C34.2218 1.8261 33.5148 1.47723 33.0771 1.43941C32.1032 1.35523 31.1064 1.82196 30.2439 3.0043Z" fill="#FCFAFA" stroke="#FCFAFA"/>
<path d="M5 39.5463C5 31.5463 14.3581 32.0717 17 26.0463C18.1275 23.4748 20.4235 19.5463 28 19.5463" stroke="#FCFAFA"/>
<path d="M50 39.5463C50 31.5463 40.6419 32.0717 38 26.0463C36.8725 23.4748 34.5765 19.5463 27 19.5463" stroke="#FCFAFA"/>
</svg>
