<svg width="60" height="60" viewBox="0 0 60 60" fill="none" xmlns="http://www.w3.org/2000/svg">
<path d="M19.6038 39.0923C19.9772 39.5501 20.3836 40.3746 20.6951 41.6546C20.9642 42.9535 20.9884 44.0615 20.8086 44.8495C20.6356 45.6076 20.3263 45.9053 20.0175 46.0083C19.6532 46.0749 19.0289 46.0688 18.465 45.8126C17.9371 45.5728 17.3961 45.0894 17.1737 44.022C16.9467 42.9329 17.2478 41.5883 17.7915 40.4329C18.0575 39.8676 18.3606 39.3936 18.6354 39.064C18.7731 38.8989 18.89 38.7866 18.9767 38.7189C19.0018 38.6993 19.0209 38.6861 19.0342 38.6775C19.1083 38.6786 19.3023 38.7226 19.6038 39.0923Z" fill="white" stroke="#E51A3F" stroke-width="2"/>
<path d="M40.3962 38.5222C40.0229 38.98 39.6164 39.8046 39.3049 41.0845C39.0359 42.3835 39.0116 43.4915 39.1915 44.2794C39.3645 45.0375 39.6737 45.3353 39.9825 45.4382C40.3469 45.5048 40.9711 45.4987 41.5351 45.2426C42.063 45.0028 42.604 44.5194 42.8264 43.452C43.0533 42.3628 42.7522 41.0182 42.2086 39.8629C41.9426 39.2976 41.6394 38.8236 41.3646 38.494C41.2269 38.3289 41.1101 38.2166 41.0234 38.1489C40.9983 38.1292 40.9791 38.116 40.9659 38.1075C40.8917 38.1085 40.6978 38.1525 40.3962 38.5222Z" fill="white" stroke="#E51A3F" stroke-width="2"/>
<path d="M27.5939 31.8013C27.982 32.3333 28.3472 33.2535 28.5224 34.6463C28.642 36.0557 28.492 37.234 28.1411 38.0536C27.8069 38.8342 27.3318 39.2225 26.7393 39.3235C26.2082 39.3629 25.3442 39.2779 24.6158 38.9038C23.9274 38.5502 23.3581 37.9486 23.261 36.825C23.1603 35.6607 23.7428 34.2603 24.6209 33.0659C25.0477 32.4852 25.511 32.0005 25.9233 31.6647C26.1295 31.4968 26.3091 31.3775 26.4523 31.3018C26.5891 31.2295 26.6533 31.218 26.6532 31.2174C26.6531 31.2173 26.6522 31.2174 26.6503 31.2176C26.8811 31.1976 27.2171 31.2848 27.5939 31.8013Z" fill="white" stroke="#E51A3F" stroke-width="2"/>
<path d="M32.525 31.8013C32.137 32.3333 31.7718 33.2535 31.5966 34.6463C31.4769 36.0557 31.627 37.234 31.9779 38.0536C32.312 38.8342 32.7871 39.2225 33.3797 39.3235C33.9107 39.3629 34.7748 39.2779 35.5032 38.9038C36.1916 38.5502 36.7609 37.9486 36.858 36.825C36.9586 35.6607 36.3762 34.2603 35.4981 33.0659C35.0712 32.4852 34.608 32.0005 34.1956 31.6647C33.9895 31.4968 33.8099 31.3775 33.6667 31.3018C33.5299 31.2295 33.4657 31.218 33.4658 31.2174C33.4658 31.2173 33.4668 31.2174 33.4687 31.2176C33.2379 31.1976 32.9018 31.2848 32.525 31.8013Z" fill="white" stroke="#E51A3F" stroke-width="2"/>
<path d="M17.8011 51.8488C17.8011 47.367 23.0438 47.6614 24.5239 44.2857C25.1555 42.8452 26.4418 40.6443 30.6863 40.6443" stroke="#E51A3F" stroke-width="2"/>
<path d="M43.0113 51.8488C43.0113 47.367 37.7686 47.6614 36.2886 44.2857C35.657 42.8452 34.3706 40.6443 30.1261 40.6443" stroke="#E51A3F" stroke-width="2"/>
<path d="M32.6512 5.625C31.948 4.92199 30.9944 4.52705 30 4.52705C29.0056 4.52705 28.052 4.92199 27.3487 5.625L2.42249 30.5475C2.24816 30.7218 2.10987 30.9288 2.01553 31.1566C1.92118 31.3843 1.87262 31.6285 1.87262 31.875C1.87262 32.1215 1.92118 32.3657 2.01553 32.5934C2.10987 32.8212 2.24816 33.0282 2.42249 33.2025C2.77456 33.5546 3.25208 33.7524 3.74999 33.7524C3.99653 33.7524 4.24065 33.7038 4.46843 33.6095C4.6962 33.5151 4.90316 33.3768 5.07749 33.2025L7.49999 30.7763V50.625C7.49999 52.1168 8.09262 53.5476 9.14751 54.6025C10.2024 55.6574 11.6331 56.25 13.125 56.25H46.875C48.3668 56.25 49.7976 55.6574 50.8525 54.6025C51.9074 53.5476 52.5 52.1168 52.5 50.625V30.7763L54.9225 33.2025C55.2746 33.5546 55.7521 33.7524 56.25 33.7524C56.7479 33.7524 57.2254 33.5546 57.5775 33.2025C57.9296 32.8504 58.1274 32.3729 58.1274 31.875C58.1274 31.3771 57.9296 30.8996 57.5775 30.5475L48.75 21.7238V9.375C48.75 8.87772 48.5524 8.40081 48.2008 8.04918C47.8492 7.69755 47.3723 7.5 46.875 7.5H43.125C42.6277 7.5 42.1508 7.69755 41.7992 8.04918C41.4475 8.40081 41.25 8.87772 41.25 9.375V14.2238L32.6512 5.625ZM48.75 27.0263V50.625C48.75 51.1223 48.5524 51.5992 48.2008 51.9508C47.8492 52.3025 47.3723 52.5 46.875 52.5H13.125C12.6277 52.5 12.1508 52.3025 11.7992 51.9508C11.4475 51.5992 11.25 51.1223 11.25 50.625V27.0263L30 8.27625L48.75 27.0263Z" fill="#E51A3F"/>
</svg>
