<svg width="211" height="238" viewBox="0 0 211 238" fill="none" xmlns="http://www.w3.org/2000/svg">
<path d="M34.5332 0.50293C54.0829 0.620658 75.0316 5.22706 93.4971 14.6484L94.375 15.1006C125.521 31.3202 134.803 63.0927 139.236 93.6768L139.65 96.6318C140.717 104.495 141.519 112.282 142.33 119.739C143.09 126.726 143.859 133.425 144.862 139.607L145.066 140.837C147.203 153.447 150.507 163.681 156.055 169.848L156.599 170.432C162.162 176.2 166.901 178.506 171.754 178.771L171.867 178.777L171.973 178.734C178.894 175.88 184.863 171.316 190.146 164.691C189.072 168.321 188.07 171.236 186.99 173.646L186.397 174.967L187.679 174.292C191.316 172.377 195.117 169.988 199.034 167.466L202.988 164.913L210.363 160.158L209.221 168.875C206.666 188.344 199.886 202.903 190.67 213.46L191.245 214.248C196.043 212.17 200.624 209.463 204.861 205.781C201.484 212.025 194.321 218.021 185.374 223.069C175.697 228.53 164.03 232.831 153.089 235.117L152.032 235.332L152.025 235.334C131.081 239.787 108.913 236.74 92.1475 231.917L90.542 231.445C47.3914 218.478 26.9691 189.158 20.2891 159.108L19.9805 157.677C13.7261 127.568 20.269 97.1442 29.7021 79.2461L30.1543 78.4033C38.3507 63.3422 34.805 50.1986 26.6289 42.0039L26.2363 41.6172C17.9298 33.5937 5.21376 30.8334 -6.44434 38.0664L-6.99902 38.4189C-13.3711 42.5573 -20.1742 42.3779 -24.3857 39.0566L-24.7852 38.7256C-28.837 35.1923 -29.8043 28.7313 -26.5391 23.8838L-26.21 23.4199C-15.8663 9.57256 3.366 2.33086 25.0898 0.801758L26.126 0.733398C28.5753 0.583018 31.0287 0.505102 33.4824 0.5L34.5332 0.50293ZM34.4795 8.66113C32.1574 8.64504 29.86 8.69735 27.5967 8.81738L26.6289 8.87305C6.37222 10.1252 -10.8507 16.9753 -19.3018 27.79L-19.6973 28.3076C-20.3523 29.1851 -20.6259 29.9959 -20.5293 30.7549C-20.445 31.4161 -20.0903 31.9512 -19.6416 32.3896L-19.4443 32.5713C-18.8783 33.0651 -17.9938 33.5708 -16.6592 33.5547C-15.3422 33.5387 -13.6407 33.0144 -11.4229 31.5732L-11.4219 31.5742C3.20405 22.0731 20.4387 25.1206 31.3662 35.2559L31.8818 35.7432C42.5937 46.0905 46.9731 63.7124 37.7461 81.4629L37.2959 82.3086C28.963 97.6228 22.2852 126.814 27.6807 154.688L27.9463 156.014C30.8363 169.925 36.5809 183.505 46.6064 195.197L47.4404 194.662C42.6347 184.269 38.9555 171.994 37.3027 160.218C35.7061 148.841 36.0079 137.984 38.9658 129.749C41.3964 133.287 44.1094 138.408 47.0723 144.273C50.2492 150.563 53.7078 157.694 57.3867 164.554C61.066 171.414 64.98 178.032 69.0801 183.308C73.17 188.57 77.4964 192.565 82.0195 194.08L83.7246 194.651L82.5586 193.281C70.6034 179.239 64.0846 156.825 64.1533 136.364C76.3206 159.358 93.8597 172.821 106.378 179.896L106.969 179.098C100.555 173.012 89.1421 157.706 90.1445 138.216C100.534 152.729 116.589 165.714 130.677 169.835L132.072 170.243L131.224 169.063C127.737 164.219 125.44 161.057 123.54 157.182C121.807 153.646 120.396 149.5 118.74 142.93C125.513 150.327 131.368 154.192 138.938 154.173L139.582 154.171L139.421 153.547C138.6 150.383 137.909 147.083 137.303 143.672L137.048 142.203C135.891 135.375 135.048 128.103 134.233 120.611C133.521 114.06 132.831 107.338 131.971 100.613L131.591 97.7314C127.457 67.2688 119.609 37.8296 91.2988 22.6924L90.626 22.3379C73.6208 13.483 53.9096 8.98872 35.6631 8.67969L35.6738 8.66992L34.4795 8.66113Z" fill="white" stroke="#063964"/>
</svg>
